stateDiagram-v2
    StartRunning : OI-Checker starts running
    ParseCLA : ✅Parse command-line arguments
    state c_parse_cla <<choice>>
    ParseCF : ✅Parse config file
    GenerateCfg : ✅Generate config
    CompileRF : ✅Compile related files
    state c_compile_rf <<choice>>
    LaunchSuites : ✅Launch suites *
    ReportTS : ✅Report total score
    CleanGF : ✅Clean generated files

    [*] --> StartRunning
    StartRunning --> ParseCLA
    ParseCLA --> c_parse_cla
    c_parse_cla --> ParseCF : check
    c_parse_cla --> [*] : help/version
    ParseCF --> GenerateCfg : Integrate
    GenerateCfg --> CompileRF
    CompileRF --> c_compile_rf
    c_compile_rf --> LaunchSuites : successful
    c_compile_rf --> [*] : failed
    LaunchSuites --> ReportTS
    ReportTS --> CleanGF
    CleanGF --> [*]
